<svg xmlns="http://www.w3.org/2000/svg" viewBox="0 0 64 64">
  <rect width="64" height="64" rx="12" fill="#f7f3ec"/>
  <g fill="none" stroke="#6f1d1b" stroke-width="4" stroke-linecap="round" stroke-linejoin="round">
    <path d="M40 16c8 1 13 7 13 15 0 11-9 18-21 18-8 0-14-3-18-8"/>
    <path d="M28 20c-7 2-12 9-12 17 0 10 8 18 18 18 2 0 4 0 6-1"/>
    <circle cx="31" cy="33" r="10"/>
    <path d="M41 39l9 9"/>
    <path d="M50 48l3 7"/>
    <path d="M16 44c-3 1-5 4-5 7 0 3 2 5 5 5 3 0 5-2 5-5v-8"/>
    <path d="M15 49h6"/>
  </g>
</svg>
