<svg xmlns="http://www.w3.org/2000/svg" viewBox="0 0 64 64">
  <rect width="64" height="64" rx="14" fill="#f7f3ec"/>
  <g fill="none" stroke="#6f1d1b" stroke-linecap="round" stroke-linejoin="round">
    <circle cx="31" cy="28" r="15" stroke-width="4.5"/>
    <path d="M41 18c7 0 11 5 11 11 0 8-6 13-14 13" stroke-width="4.5"/>
    <path d="M18 31c-5 2-8 6-8 12 0 5 4 9 9 9 5 0 9-4 9-9 0-2 0-4-1-6" stroke-width="4"/>
    <path d="M24 43c4 1 8 1 13-1" stroke-width="3.5"/>
    <path d="M44 37l7 7" stroke-width="4"/>
    <path d="M50 44l3 8" stroke-width="4"/>
    <circle cx="13" cy="52" r="3.5" fill="#6f1d1b" stroke="none"/>
    <path d="M13 49V39" stroke-width="3.5"/>
    <path d="M9.5 40h7" stroke-width="3.5"/>
  </g>
  <circle cx="31" cy="28" r="4.8" fill="#caa15a"/>
</svg>
